<svg width="575" height="128" viewBox="0 0 575 128" fill="none" xmlns="http://www.w3.org/2000/svg">
<path d="M75.6 31.5122L72.8 9.71218C75.3 3.61219 79.3 8.71218 79.3 8.71218C79.3 8.71218 103.4 86.0122 105.5 95.4122C107.6 104.712 111.9 96.3122 111.9 96.3122C111.9 96.3122 126.7 50.3122 129.2 44.4122C131.6 38.4122 133.2 44.0122 133.2 44.0122C133.2 44.0122 146.2 82.3122 147 87.0122C147.8 91.8122 150.4 87.4122 150.4 87.4122C150.4 87.4122 174.4 17.7122 176.1 11.7122C177.8 5.71218 179.9 6.41217 179.9 6.41217C182.2 5.91217 182.5 9.61218 182.5 9.61218L182.7 68.4122C183.1 73.3122 179.3 76.3122 179.3 76.3122C179.3 76.3122 171.8 82.6122 178 81.7122C184.2 80.8122 227.2 73.9122 228.2 71.2122C229.2 68.5122 231.1 58.1122 231.7 54.4122C232.3 50.7122 231.6 49.4122 230.1 49.8122C228.6 50.2122 227.8 53.9122 227.8 53.9122C223.5 65.7122 210.6 71.5122 204.7 71.4122C198.8 71.3122 199 66.0122 199 66.0122C199 66.0122 198.8 48.8122 198.9 47.2122C199.1 45.6122 200.6 41.6122 206.1 41.4122C211.6 41.2122 214.4 45.8122 214.6 48.1122C214.8 50.4122 215.4 54.1122 218 54.2122C220.6 54.4122 221.6 51.6122 221.6 51.6122L221.5 27.7122C221.5 27.7122 221.7 21.9122 218.7 22.3122C215.6 22.7122 214.3 26.7122 214.2 29.0122C214 31.3122 211 34.8122 205.3 35.0122C199.6 35.2122 199.4 30.8122 199.4 30.8122C199.4 30.8122 199.2 16.4122 199.2 13.4122C199.2 10.4122 202.8 7.91217 202.8 7.91217L211.8 7.61218C223.9 9.71218 232.1 24.2122 232.1 24.2122C237.9 28.0122 234.9 19.3122 234.9 19.3122L230.5 5.11218C229.3 1.21218 224.2 1.11218 224.2 1.11218C224.2 1.11218 169.8 1.21218 167 1.21218C164.2 1.21218 159.4 4.21216 164 6.31216C168.2 8.21216 165.7 13.2122 165.7 13.2122C165.7 13.2122 155.6 44.0122 154.3 47.5122C153 51.0122 151.3 47.9122 151.3 47.9122L141 13.1122C139.5 9.61218 142.3 8.21218 142.3 8.21218C149.1 3.21218 141 1.51217 141 1.51217L118.8 1.61218C118.8 1.61218 115.4 2.31217 115.6 4.41217C115.8 6.51217 119.4 7.21218 119.4 7.21218C122.1 7.51218 123.6 11.1122 123.6 11.1122L127.5 24.1122C127.5 24.1122 118.3 54.9122 116.4 57.9122C114.5 60.9122 113.3 58.4122 113.3 58.4122C113.3 58.4122 99.9 15.9122 99.5 13.1122C99.1 10.3122 100.4 9.91217 100.4 9.91217C102.3 7.81217 104.2 7.41217 104.2 5.51217C104.2 3.21217 102.7 1.71218 102.7 1.71218L74.7 1.51217C69.8 1.91217 66.3 5.81216 64 5.81216C63.2 5.81216 61.5 3.81218 55.6 2.11218C49.7 0.412179 47.2 -0.0878273 43 0.0121727C35.1 0.112173 28.9 2.41218 22.8 7.61218C16.7 12.8122 13.6 19.3122 13.7 27.1122C13.7 32.9122 17.8 42.5122 23 47.4122C25.8 49.9122 29.6 52.5122 34.3 55.0122L50 63.1122C59 67.8122 65.5 71.9122 68.6 73.9122C73.7 77.2122 77.3 84.8122 77.5 89.8122C78.3 107.712 67.7 114.412 62.5 117.512C55.1 121.912 48.5 122.812 44.2 122.112C22.5 118.312 18 102.212 18.5 99.6122C19 97.0122 18 90.7122 25.5 88.8122C33.1 86.9122 34.6 79.6122 34.6 79.6122C35.8 66.2122 22.9 66.3122 22.9 66.3122C1.20003 66.6122 0.500031 85.3122 0.500031 85.3122C-1.19997 117.512 27.9 125.112 27.9 125.112C34.1 126.912 40 127.812 45.7 127.812C56 127.712 64.4 125.212 73.4 119.612C81.1 114.812 94.8 103.112 92.5 80.4122C91.9 74.4122 89.3 66.3122 85.2 61.9122C81.1 57.5122 74.5 52.1122 64.4 46.9122L49 39.0122C43 35.9122 37.4 33.2122 34.5 30.4122C31.6 27.6122 30.2 24.2122 30.2 20.2122C30.2 15.8122 30.9 12.8122 34.3 9.91217C36.8 7.81217 38.3 7.21217 43.3 7.01217C48.3 6.81217 51 8.31217 57.3 13.0122C62.1 16.5122 68.3 26.0122 70.6 31.3122C70 30.6122 73.8 34.4122 75.6 31.5122Z" fill="white"/>
<path d="M361 6.61221C364.8 9.21221 364.6 12.5122 364.6 12.5122L364.7 58.2122C365.2 62.6122 361.2 65.6122 361.2 65.6122C361.2 65.6122 352.9 72.2122 360.5 71.9122C385.3 71.1122 407.3 77.4122 408.4 74.0122C409.7 70.0122 411.4 63.5122 412.1 60.1122C413.8 52.0122 412.3 50.6122 410.4 50.6122C408.9 50.6122 405 59.6122 405 59.6122C401.1 70.6122 389.5 67.7122 384.2 67.6122C378.9 67.5122 379.5 61.8122 379.5 61.8122C379.5 61.8122 379.3 45.8122 379.4 44.3122C379.6 42.8122 380.9 39.1122 385.9 38.9122C390.9 38.7122 391.5 44.9122 391.7 47.0122C391.9 49.1122 392.5 51.9122 394.9 52.1122C398.7 52.4122 398.7 48.6122 398.7 48.6122L398.6 27.6122C398.6 27.6122 399 22.6122 395.5 22.6122C392.3 22.6122 392.1 26.7122 391.9 28.8122C391.7 30.9122 390.3 32.8122 385.1 33.0122C379.9 33.2122 379.3 28.6122 379.3 28.6122L378.9 12.8122C378.7 7.31219 382.9 7.21222 382.9 7.21222H390.5C403.9 9.61222 407.5 23.0122 407.5 23.0122C412 27.6122 410 18.4122 410 18.4122L407.9 5.21222C406.9 1.61222 402.2 1.51221 402.2 1.51221C402.2 1.51221 364.5 1.61221 361.9 1.61221C362 1.31221 353.3 1.41221 361 6.61221Z" fill="white"/>
<path d="M550.3 2.91223C548.8 4.51223 546.2 7.31223 543.9 7.31223C540.7 7.21223 537.3 4.61224 536.3 4.11224C532.9 2.51224 529 2.21223 524.8 2.31223C515.5 2.41223 507.9 5.51224 502.1 11.0122C498.3 14.5122 495.4 20.2122 495.5 27.9122C495.5 33.8122 499.6 43.4122 504.8 48.2122C507.6 50.8122 511.4 53.3122 516.1 55.8122L531.8 64.0122C540.8 68.7122 547.3 72.7122 550.4 74.8122C555.5 78.1122 559 84.6122 559.3 89.6122C560.4 109.312 547.1 115.512 543.3 117.912C540.1 119.912 530.9 122.912 525.9 121.912C504.9 118.012 499.7 102.012 500.2 99.4122C500.7 96.8122 499.7 90.5122 507.2 88.6122C514.8 86.7122 516.3 79.4122 516.3 79.4122C517.5 66.0122 504.6 66.1122 504.6 66.1122C482.9 66.4122 482.2 85.1122 482.2 85.1122C480.5 117.312 509.5 125.012 509.5 125.012C515.7 126.812 521.6 127.712 527.2 127.712C538.5 127.612 547.6 124.012 554.9 119.512C562.6 114.712 576.3 104.112 574 81.4122C573.4 75.4122 570.8 67.3122 566.7 62.9122C562.6 58.5122 555.9 53.1122 545.8 47.9122L530.4 40.0122C524.4 36.9122 518.8 34.2122 515.9 31.4122C513 28.6122 512.3 25.2122 511.6 21.2122C511.3 19.4122 513.2 14.3122 514.9 12.5122C517.2 10.2122 523 8.01223 526.1 7.81223C529.7 7.71223 535.4 10.5122 538.7 12.9122C543.5 16.4122 551.6 25.5122 554.2 33.3122C554.2 33.3122 558.2 38.4122 558.2 28.5122L554.2 4.01224C554.2 3.81224 553.3 -0.287769 550.3 2.91223Z" fill="white"/>
<path d="M258.4 70.2123L238.7 72.2123C238.7 72.2123 232.2 71.7123 238.5 67.8123C243.8 64.5123 243.2 60.6123 243.2 60.6123L243 10.2123C243 10.2123 242.8 8.91227 238.2 5.51227C234.7 2.91227 239.2 2.01227 239.2 2.01227H257.4C257.4 2.01227 261.7 2.71226 265 7.81226L283 31.9123C283 31.9123 285.5 35.0123 285.5 29.3123L285.4 11.2123C285.4 11.2123 285.4 6.61228 281.6 5.21228C277.8 3.81228 278.5 1.91226 282.8 1.81226H297.2C297.2 1.81226 304.6 1.81226 298.7 5.41226C298.7 5.41226 295.4 6.81228 295.4 11.2123L295.6 68.0123C295.6 68.0123 295.6 73.9123 290.5 68.7123L256 23.3123C256 23.3123 251.7 18.6123 251.5 24.0123L251.6 60.1123C251.6 60.1123 252.3 64.4123 258 66.5123C264.4 68.8123 258.4 70.2123 258.4 70.2123Z" fill="white"/>
<path d="M434 82.6122L420.9 80.3122C420.9 80.3122 409.5 79.3122 419.5 74.9122C422.7 73.5122 422.2 68.7122 422.2 68.7122L422 9.41222C422 9.41222 421.5 7.21223 417.4 6.11223C413.2 5.01223 416.9 2.91222 416.9 2.91222H435C435 2.91222 438.3 2.61224 441.6 9.71224L461.9 47.7122C461.9 47.7122 465.7 50.7122 465.7 45.1122L465.6 12.3122C465.6 12.3122 466.5 9.21222 460.5 6.31222C456.9 4.51222 457.4 3.01223 461.8 3.01223H476.2C476.2 3.01223 483.6 3.01223 477.7 6.61223C477.7 6.61223 474.3 7.91222 474.4 12.4122L474.6 92.4122C474.6 92.4122 474.6 98.3122 469.6 93.1122L435 31.5122C435 31.5122 431.4 24.7122 431.7 35.0122L431.8 75.0122C431.8 75.0122 431.6 77.9122 435.6 80.5122C440.7 83.2122 434 82.6122 434 82.6122Z" fill="white"/>
<path d="M313.4 69.0122C313.8 68.3122 314.7 67.9122 316 67.9122C316.5 67.9122 317.5 67.4122 321.1 68.9122C323.9 70.1122 329.3 72.1122 331.9 71.9122C338.7 71.4122 342.1 70.4122 346.5 66.9122C350.9 63.4122 354 57.4122 354 52.2122C354 48.3122 352.1 44.5122 349.6 41.6122C347.1 38.8122 344.3 35.4122 338.2 32.0122L330.2 26.6122C326.5 24.6122 324 22.8122 322.2 21.0122C320.5 19.2122 318.1 17.3122 318.1 14.8122C318.1 11.9122 318.9 9.61223 320.2 8.31223C321.7 6.91223 324.3 5.81223 326.5 5.81223C330.4 5.81223 332.1 6.91224 333.7 8.01224C342.9 14.0122 348.1 21.2122 349.7 23.0122C352.3 26.0122 351.4 21.8122 351.4 21.8122L347.7 2.21225C345.9 -1.28775 341.9 3.51224 341.9 3.51224C341.4 4.11224 338.8 5.11224 337.1 4.01224C336.7 3.81224 334.1 2.11225 332.3 1.71225C330.4 1.21225 328.1 0.412231 325.6 0.412231C319.5 0.412231 313.1 3.01223 310.5 5.81223C308.7 7.71223 304.7 13.7122 304.7 18.7122C304.7 22.5122 307.1 28.3122 310.3 31.0122C312.1 32.5122 312.7 33.3122 315.6 35.0122L325.5 42.0122C331 45.0122 333.9 46.8122 335.6 48.4122C340.9 53.2122 340.1 55.7122 340.2 57.3122C340.3 59.7122 339.2 61.7122 337.3 63.1122C334.4 65.2122 331 66.8122 327.4 65.9122C327.4 65.9122 321.2 65.9122 312.8 55.7122C312.8 55.7122 310.8 53.5122 307.4 48.8122C307.4 48.8122 303.1 44.1122 304 49.6122C304.9 54.9122 308.4 69.1122 308.4 69.1122C308.4 69.1122 309.9 75.3122 313.4 69.0122Z" fill="white"/>
<path d="M481.7 7.01221C481.7 7.01221 484 1.6122 489.3 1.9122C496.8 2.3122 502.3 17.7122 483.1 21.6122C483.1 21.6122 489.1 16.9122 484.8 14.7122C482.1 13.2122 481.1 10.3122 481.7 7.01221Z" fill="white"/>
</svg>
